Patient4_TMGait_0pt7_02_left_02_EMG.mot
version=1
nRows=33
nColumns=33
inDegrees=no
endheader
time	1LAddLong	2LGlutMax	3LGlutMed	4LIliopsoas	5LSemiMemb	6LBicFemLong	7LRecFem	8LVastMed	9LVastLat	10LGasMed	11LTibAnt	12lTibPost	13LPeroneusLong	14LSol	15LExtDigLong	16LFlexDigLong	17RAddLong	18RGlutMax	19RGlutMed	20RIliopsoas	21RSemiMemb	22RBicFemLong	23RRecFem	24RVastMed	25RVastLat	26RGasMed	27RTibAnt	28RTibPost	29RPeroneusLong	30RSol	31RExtDigLong	32RFlexDigLong
1.81	-0.003204	0.078888	-0.053406	-0.006409	-0.013733	0.009003	0.04303	0.009918	0.22553	0.003967	0.065155	0.007935	-0.012512	0.007019	-0.046082	-0.005188	-0.00061	-0.079041	0.27893	0.14297	-0.098114	0.006714	0.1004	0.024261	-0.12711	-0.008087	-0.026245	0.035095	0.47302	-0.081329	0.001068	-0.001373
1.811	-0.002747	0.041199	-0.045166	-0.00351	-0.016479	-0.001984	0.013123	0.012512	0.22553	0.013733	-0.14832	0.005646	0.017548	-0.089417	0.019836	-0.004425	0.006256	-0.001526	0.32516	0.029602	-0.054016	-0.033264	0.15488	0.027466	-0.39139	-0.010834	-0.043945	0.005035	0.36163	0.084839	-0.003662	-0.009613
1.812	0.000916	0.05661	-0.030518	0.018768	-0.021667	-0.019073	0.017548	0.013885	0.22629	0.018768	-0.1236	-0.002747	0.033875	-0.074921	0.14664	-0.007172	-0.001373	0.030823	1.0306	-0.11292	-0.037079	-0.003052	-0.05661	0.030823	-0.51697	-0.016479	0.027618	0.00061	0.23163	0.065613	-0.00061	-0.014191
1.813	0.00946	0.005341	-0.026245	0.027924	-0.023193	-0.02182	0.01236	0.01358	0.21774	-0.004425	-0.019836	0.005493	0.06073	-0.044556	0.12207	0.004272	0.005188	-0.007477	0.63263	-0.035095	-0.002136	-0.040894	-0.046082	0.084229	-0.25024	-0.010681	0.015259	-0.006409	0.26428	-0.02121	0.000153	-0.006409
1.814	0.011444	0.016785	-0.032501	0.022736	-0.016479	-0.025482	-0.003357	0.013275	0.2066	-0.059814	0.023651	0.005188	0.11169	-0.023193	0.010529	-0.00351	0.010834	0.032654	0.092163	0.072479	-0.001373	-0.081024	0.068665	0.063629	-0.046387	-0.007935	-0.1561	-0.009308	-0.08255	-0.10544	0.000305	-0.003967
1.815	0.007477	0.000305	-0.085907	0.002136	-0.033722	-0.01236	0.003357	0.015411	0.20798	-0.076294	0.052948	0.009613	0.12085	-0.0177	-0.14801	0.005798	0.008698	-0.11307	-0.36697	0.13199	-0.010376	-0.091705	-0.002747	-0.037689	0.009308	0.001068	-0.19577	-0.004883	0.14191	-0.13901	-0.001526	-0.004883
1.816	0.00885	-0.018158	-0.081024	-0.028076	-0.023193	-0.044403	0.002899	0.006104	0.21179	-0.01709	0.061035	0.006256	0.092468	-0.008545	-0.05188	-0.004272	-0.011902	-0.13351	-0.44067	0.15045	-0.011902	-0.12543	-0.11643	-0.008545	-0.041351	-0.006104	-0.029449	-0.014648	-0.11108	-0.06485	0.00061	0.000763
1.817	0.013123	0.023041	-0.050812	-0.001068	-0.016785	-0.069275	0.00946	0.006866	0.20416	0.034332	0.005035	0.006866	0.041656	-0.00885	-0.04715	0.00351	0.012665	-0.072632	-0.17014	0.070343	0.009308	-0.12512	-0.023651	0.056763	-0.1265	-0.005341	0.096283	-0.003357	-0.25864	0.000458	0	-0.00351
1.818	0.004425	-0.036774	0.066986	0.013123	-0.00946	-0.055084	-0.002747	0.014496	0.20584	0.048065	0.003357	0.005493	0.012817	-0.047455	-0.18097	-0.004425	0.019684	-0.059509	0.30655	-0.082855	-0.03479	-0.10635	0.008392	0.055237	-0.13275	-0.004883	0.1619	-0.013733	0.017548	0.005646	-0.002594	-0.001526
1.819	0.00885	-0.05188	0.047913	0.000763	-0.007019	-0.036621	0.000458	0.009308	0.19806	0.046234	-0.018921	0.005646	0.030365	-0.09964	-0.21408	-0.001068	0.007324	-0.016937	0.37201	-0.089874	-0.051422	-0.087585	-0.18539	-0.052032	-0.077667	-0.026245	0.19287	-0.012665	0.177	-0.006104	0.001831	-0.008392
1.82	0.009918	-0.093689	0.006866	0.006104	0	-0.030365	0.007019	0.00824	0.19852	0.010376	-0.014648	-0.00061	-0.001373	-0.11383	-0.1236	-0.008698	0.005646	-0.086823	0.24277	-0.056915	-0.12329	-0.10056	-0.14801	-0.031891	0.073395	-0.072632	0.12131	-0.004578	-0.39825	-0.074768	-0.002289	-0.007782
1.821	0.01358	-0.077972	-0.036469	0.000916	0.004425	-0.019684	0.003204	0.006866	0.19455	-0.027618	-0.016327	0.001221	0.000153	-0.10071	0.018005	-0.005188	0.003204	-0.030823	0.25207	0.039215	-0.018616	-0.11795	-0.007477	-0.023956	0.027466	-0.098267	0.076752	-0.004425	-0.57007	-0.029449	-0.005188	-0.005951
1.822	0.011292	-0.053558	-0.02655	0.015411	-0.028992	-0.050659	0.009308	0.00885	0.18585	-0.016785	-0.02121	0.000916	0.028839	-0.045776	0.011902	0.01297	0.014954	0.070343	-0.007935	0.1503	-0.035706	-0.078125	0.10468	-0.16342	-0.031738	-0.09079	0.11963	-0.012054	-0.50415	-0.010681	-0.002594	-0.001984
1.823	0.014496	-0.064545	-0.015869	-0.00824	-0.041351	-0.11627	0.007172	0.00946	0.17944	-0.018463	-0.049133	0.006866	0.014343	-0.024109	0.47852	0.004883	0.035706	0.084839	-0.027466	0.15366	-0.03479	-0.12863	0.1207	-0.064545	-0.030212	-0.021362	0.15732	-0.044098	-0.050507	0.089111	-0.000153	0.001678
1.824	0.008698	-0.055695	-0.032959	0.006256	-0.028076	-0.090942	0.014496	0.011597	0.15289	-0.01358	-0.070953	-0.000153	0.03067	-0.00824	0.31403	0.008087	0.030823	0.056152	0.31204	0.079498	-0.065918	-0.22186	0.11612	-0.061188	0.048065	0.11139	0.103	-0.15198	0.2446	0.015106	0.000305	-0.002747
1.825	0.005188	-0.055389	-0.021362	-0.022736	-0.033112	-0.080261	0.019379	0.014496	0.1413	-0.025635	-0.063019	-0.001221	0.070038	-0.003052	0.03952	0.01297	0.024414	-0.046692	-0.00885	0.025177	-0.25269	-0.24475	0.10635	-0.070496	0.07309	-0.065155	-0.09491	-0.083466	0.62439	-0.049744	0.010529	-0.011139
1.826	0.004578	-0.025024	-0.036621	-0.006561	-0.063934	-0.041046	0.022736	0.012512	0.13886	-0.012817	-0.08194	-0.000458	0.059204	-0.007324	-0.035858	0.019531	-0.01297	-0.007629	-0.16937	0.00946	-0.24811	-0.18158	0.005035	-0.048981	0.1535	-0.038757	-0.040436	0.14862	-0.53314	-0.069885	-0.003204	-0.012207
1.827	0.003662	-0.009766	-0.018921	-0.016174	-0.046692	-0.055542	0.009918	0.01709	0.13962	-0.054932	-0.021362	-0.011597	0.095062	0.024567	-0.008698	0.012054	-0.035706	-0.023956	0.017853	-0.058594	-0.082703	0.089111	0.10742	-0.13214	0.11261	0.059509	0.010376	0.008392	-0.40726	0.066528	-0.001068	-0.012054
1.828	0.00946	-0.028381	-0.024872	-0.009766	-0.023956	-0.063477	0.015869	0.008698	0.14252	-0.034485	0.074921	-0.006409	0.036774	-0.013733	0.19318	0.006866	-0.057678	-0.090332	0.46982	-0.12543	0.12466	0.29648	0.040588	-0.074921	0.077667	0.014801	-0.011292	-0.041962	-0.099945	0.13336	0.00061	-0.013123
1.829	0.009003	-0.028076	-0.023041	-0.010376	0.016785	-0.054626	0.002899	0.00946	0.14435	0.019226	0.080109	-0.00824	-0.012817	-0.031281	0.13916	0.00412	-0.056	-0.058136	0.51544	-0.094299	0.11322	0.27771	-0.045013	-0.021667	0	-0.053864	-0.033112	-0.080261	-0.077362	-0.091705	-0.003815	-0.015106
1.83	0.008392	0.006256	-0.027313	0.011749	0.028381	-0.059204	0.006104	0.006714	0.13702	0.007172	0.024567	-0.005798	-0.009766	-0.041809	-0.011749	-0.002747	-0.036774	-0.001373	0.12314	-0.099487	0.073395	0.19516	-0.23377	-0.041962	-0.15976	-0.046539	0.003357	0.007782	0.13947	-0.54169	-0.00061	-0.024109
1.831	0.01297	0.024414	-0.027771	-0.001068	-0.002136	-0.058441	-0.021362	0.009155	0.13382	-0.002747	0.032196	-0.011139	0.004272	-0.045471	-0.1857	-0.010529	-0.033875	0.062103	0.097656	-0.10651	0.061951	0.021057	-0.1297	0.14252	-0.10513	-0.027313	0.028076	-0.19501	0.51758	-0.67322	-0.00412	-0.019531
1.832	0.000153	-0.027008	-0.005341	-0.006866	-0.010529	-0.059967	-0.007477	0.013733	0.12207	-0.002594	0.063934	-0.008545	0.018005	-0.066223	-0.37888	-0.000916	-0.024261	0.048218	0.25116	-0.044556	0.029907	-0.007019	0.1181	0.33356	0.028076	0.027008	0.012512	-0.039673	0.495	-0.64514	-0.000458	-0.015106
1.833	0.00946	-0.019989	-0.020599	0.001984	-0.016022	-0.081024	0.006561	0.002441	0.12787	-0.027618	0.039368	-0.011749	0.045166	-0.072479	-0.12238	0.006104	-0.025177	0.16754	0.060883	0.023193	0.005493	0.021362	0.21149	0.20813	0.15243	0.03006	0.036011	0.28	0.32364	0.17716	0.002747	-0.005493
1.834	0.003357	-0.053864	-0.00473	0.010071	-0.016479	-0.088043	0.006104	0.02182	0.12695	-0.037537	0.01358	-0.007629	0.047913	-0.071564	-0.005493	0.014954	-0.015717	0.071564	-0.31128	0.10071	0.019226	0.035248	0.34622	-0.010223	0.072174	0.024872	-0.036316	0.19775	0.43732	0.29205	-0.000763	-0.003662
1.835	0.005035	-0.086212	-0.023651	0.002289	-0.014343	-0.078583	-0.005798	0.011139	0.13672	-0.027618	0.007019	-0.007629	0.04776	-0.093384	-0.057526	0.005798	-0.02182	-0.001678	-0.24323	0.027161	0.020142	0.075684	0.065918	-0.14877	0.019073	0.003662	0.048523	0.084991	-0.32593	0.17425	0.000763	-0.003052
1.836	0.000153	-0.06897	-0.040131	0.019989	-0.001831	-0.076752	0.004883	0.018005	0.12665	-0.029449	-0.008698	-0.008392	0.063782	-0.10407	-0.032959	0.01297	-0.015869	0.035095	0.22461	-0.077209	0.041046	0.071869	0.033722	-0.11444	-0.063477	-0.020599	0.10742	0.004272	-0.36209	0.383	-0.001831	-0.001678
1.837	-0.001068	-0.088348	-0.065002	0.000763	0.006714	-0.094299	0.001221	0.014038	0.13763	-0.015259	-0.021515	-0.008392	0.071869	-0.023346	-0.009003	0.010529	-0.00946	0.070953	-0.14481	-0.17487	0.025024	0.041962	-0.11154	-0.21652	-0.16205	-0.014496	0.072021	-0.013733	0.13794	0.22339	0.002136	-0.001678
1.838	0.009155	-0.085907	-0.063629	0.023193	0.003662	-0.092926	0.007782	0.013275	0.11444	0.012512	-0.023651	-0.006409	0.0354	0.044098	-0.00946	-0.005341	0.000763	0.072174	-0.24674	-0.11627	0.021057	0.010223	-0.039368	-0.16922	-0.14069	0.000305	0.11917	0.016632	0.20126	0.14725	0.000458	-0.006409
1.839	0.008698	-0.11337	-0.052185	0.010071	-0.04425	-0.11276	0.00412	0.011444	0.10223	0.018768	0.026245	-0.007172	0.052338	0.003052	-0.001221	0.009155	0.007019	0.10178	-0.61218	-0.14755	0.023956	-0.001373	0.012817	-0.070953	0.24429	-0.001831	0.058289	-0.010681	0.087128	0.019379	0.001373	0.00061
1.84	0.023956	-0.11292	0.036774	0.004425	-0.059967	-0.11932	0.004272	0.018768	0.10361	0.012207	0.050049	-0.008698	0.061646	-0.088501	0.037537	0.001831	-0.020294	0.14999	-0.41504	-0.16174	0.027771	-0.029907	-0.12405	0.095062	0.69076	0.001678	-0.054779	-0.023956	-0.29785	-0.045319	-0.000305	-0.004272
1.841	0.026703	-0.12177	0.032654	0.016174	-0.06546	-0.11749	0.001526	0.012512	0.10284	-0.023193	0.023499	-0.01297	0.059204	-0.10895	0.057068	0.011597	-0.035095	0.15182	0.56183	-0.14496	0.027008	-0.045319	-0.49316	0.2002	0.69519	-0.002289	-0.095062	-0.031586	-0.53024	-0.04715	-0.001373	-0.002899
1.842	0.023804	-0.15442	0.021057	0.002899	-0.031128	-0.097351	0.009918	0.010376	0.092926	-0.04776	0.012817	-0.005188	0.085754	-0.065613	0.053558	0.006866	-0.014801	0.12375	1.3275	-0.038452	0.001221	-0.041809	-0.65933	0.25101	0.35095	-0.005188	-0.018311	-0.027771	-0.94955	0.039215	0.000305	-0.010223
